Coordinates
version=1
nRows=11
nColumns=40
inDegrees=yes

Units are S.I. units (second, meters, Newtons, ...)
Angles are in degrees.

endheader
time	pelvis_tilt	pelvis_list	pelvis_rotation	pelvis_tx	pelvis_ty	pelvis_tz	hip_flexion_r	hip_adduction_r	hip_rotation_r	knee_angle_r	knee_angle_r_beta	ankle_angle_r	subtalar_angle_r	mtp_angle_r	hip_flexion_l	hip_adduction_l	hip_rotation_l	knee_angle_l	knee_angle_l_beta	ankle_angle_l	subtalar_angle_l	mtp_angle_l	lumbar_extension	lumbar_bending	lumbar_rotation	arm_flex_r	arm_add_r	arm_rot_r	elbow_flex_r	pro_sup_r	wrist_flex_r	wrist_dev_r	arm_flex_l	arm_add_l	arm_rot_l	elbow_flex_l	pro_sup_l	wrist_flex_l	wrist_dev_l
      2.84500000	     -5.70387908	     -3.46435774	      0.88577605	      1.02481121	      0.91886447	      0.46381718	     25.46592682	     -1.31388535	    -13.21742827	     23.16137243	     23.16137243	      5.75661960	     -3.17131621	      0.16420442	      1.33056772	     -9.27594068	     -9.47523767	     31.16853918	     31.16853918	     13.21384161	     -6.02390208	    -14.32392249	    -10.77546948	      3.52131087	      0.49711829	    -11.78454478	    -11.91910590	      1.63033509	     30.75276356	     45.67643137	      0.00000000	      0.00000000	     10.84368819	    -16.14567810	     -6.59258775	     90.97301868	     48.07044867	      0.00000000	      0.00000000
      2.85657143	     -5.71913083	     -3.67539675	      1.07136323	      1.02460981	      0.91999267	      0.46673874	     24.66759716	     -0.90789952	    -13.58518213	     22.71554135	     22.71554135	      6.15216622	     -2.87149279	     -0.02961250	      3.15027491	     -9.99562515	     -8.29449691	     34.89732355	     34.89732355	     10.33703420	     -8.74830545	    -16.53969971	    -10.77939200	      3.64142305	      0.59852037	    -10.63524701	    -12.28631095	      2.06188821	     32.33937822	     45.61290009	      0.00000000	      0.00000000	      9.75838413	    -15.42408232	     -6.72836351	     88.14113324	     48.05004515	      0.00000000	      0.00000000
      2.86814286	     -5.74722744	     -3.87627680	      1.31018957	      1.02409553	      0.92092459	      0.46958100	     23.92344708	     -0.52883793	    -13.96623118	     22.30666119	     22.30666119	      6.50408503	     -2.61407311	     -0.19957676	      5.32570152	    -10.62619059	     -6.86493283	     39.11108807	     39.11108807	      8.05798324	    -11.07951699	    -16.35012228	    -10.81562891	      3.73464175	      0.39480388	     -9.04468924	    -12.53864596	      1.94059356	     33.45670822	     45.59330518	      0.00000000	      0.00000000	      8.52264702	    -14.95697697	     -6.89052635	     85.30129896	     48.00688341	      0.00000000	      0.00000000
      2.87971429	     -5.79902652	     -4.22025163	      1.58683155	      1.02338508	      0.92156496	      0.47237679	     23.17087913	      0.00372841	    -14.41583546	     21.79940229	     21.79940229	      6.86077508	     -2.34550420	     -0.31778574	      7.75114391	    -11.43839613	     -5.53167194	     43.50181426	     43.50181426	      5.80143651	    -12.71040795	    -15.93501522	    -10.84504066	      3.95730253	      0.39759256	     -7.46119108	    -12.79521179	      1.76991003	     34.42624206	     45.57865018	      0.00000000	      0.00000000	      7.25450255	    -14.48147445	     -6.76382850	     83.18833847	     47.95383867	      0.00000000	      0.00000000
      2.89128571	     -5.91865784	     -4.46754014	      1.88378644	      1.02238713	      0.92202169	      0.47496335	     22.55521028	      0.40216628	    -14.88059646	     21.37167514	     21.37167514	      7.14871912	     -2.07887089	     -0.50250976	     10.37014621	    -11.90600961	     -3.90665812	     47.80757953	     47.80757953	      3.56767481	    -14.60035843	    -14.63835373	    -10.76124334	      4.06043179	      0.16062543	     -5.76820878	    -13.05951334	      1.52600283	     35.79423301	     45.55300462	      0.00000000	      0.00000000	      6.16318891	    -14.01752400	     -6.87116900	     79.98384067	     47.89756158	      0.00000000	      0.00000000
      2.90285714	     -5.93965877	     -4.79369024	      2.18411440	      1.02124523	      0.92238504	      0.47744918	     21.90245238	      0.87567291	    -15.32212515	     21.04859201	     21.04859201	      7.46439147	     -1.81536137	     -0.70013899	     12.96139564	    -12.41384404	     -2.36440698	     51.96900096	     51.96900096	      1.60982298	    -15.84532160	    -13.09998189	    -10.82551749	      4.28646532	      0.13859703	     -4.02981544	    -13.38995056	      1.27064283	     37.11528186	     45.52934510	      0.00000000	      0.00000000	      5.22015862	    -13.44483289	     -6.84687446	     77.16987442	     47.84043167	      0.00000000	      0.00000000
      2.91442857	     -6.00969020	     -4.91264667	      2.41105924	      1.01988567	      0.92274754	      0.47962941	     21.29738535	      1.12216509	    -15.71147019	     20.67189809	     20.67189809	      7.63085803	     -1.46494263	     -1.38343446	     15.85617591	    -12.51327312	     -0.86442011	     56.46632415	     56.46632415	      2.73809245	    -15.12535265	     -4.62091599	    -10.84562354	      4.34417382	      1.22794899	     -3.84334013	    -13.95572588	      0.14740272	     41.09742576	     45.45133154	      0.00000000	      0.00000000	      6.17480597	    -12.17268417	     -6.55456204	     70.54090362	     47.70711407	      0.00000000	      0.00000000
      2.92600000	     -5.94464220	     -5.25211122	      2.61107363	      1.01850988	      0.92305254	      0.48197060	     20.63315846	      1.63006540	    -16.06402798	     20.44558431	     20.44558431	      7.98887894	     -1.25637010	     -1.50395866	     18.27647153	    -12.94323034	      0.35333216	     59.84790679	     59.84790679	      1.07450270	    -15.88627711	     -4.01083803	    -11.12441223	      4.52731574	      1.38907587	     -1.73570754	    -14.34007458	     -0.15255863	     42.09332649	     45.44374550	      0.00000000	      0.00000000	      4.97699101	    -11.74073866	     -6.22804450	     68.95554401	     47.64940843	      0.00000000	      0.00000000
      2.93757143	     -6.06371371	     -5.43481962	      2.91321614	      1.01694697	      0.92327839	      0.48385319	     20.07683442	      1.90991321	    -16.52231010	     20.04051565	     20.04051565	      8.24588362	     -0.80242192	     -1.77432181	     21.11659168	    -12.98806702	      1.67175464	     63.30465819	     63.30465819	      2.03198605	    -15.43807117	      2.05218698	    -11.04475458	      4.63015869	      1.78401840	     -0.62460984	    -14.63695344	     -1.31112393	     44.88367009	     45.42002378	      0.00000000	      0.00000000	      5.42409285	    -11.06827072	     -5.94495107	     62.61409625	     47.52085009	      0.00000000	      0.00000000
      2.94914286	     -6.07055223	     -5.63901112	      3.14483064	      1.01537568	      0.92367553	      0.48573677	     19.42797516	      2.24207913	    -16.92527577	     19.68231644	     19.68231644	      8.56865019	     -0.34865599	     -1.89150225	     23.50019628	    -13.12754299	      2.66195586	     65.78764787	     65.78764787	      1.32485952	    -15.75745928	      2.75648157	    -11.19056227	      4.67648826	      1.59857061	      1.67153632	    -14.88022293	     -1.64381893	     46.23504380	     45.40305696	      0.00000000	      0.00000000	      4.35956201	    -10.80926446	     -5.67974334	     59.68486745	     47.44376603	      0.00000000	      0.00000000
      2.96071429	     -6.11499375	     -5.84618906	      3.35932896	      1.01374810	      0.92406364	      0.48739835	     18.77832595	      2.57170223	    -17.38419926	     19.22935262	     19.22935262	      8.83640350	      0.20268309	     -1.98889469	     25.91245130	    -13.23244372	      3.50926953	     67.93090778	     67.93090778	      1.50099771	    -15.79637980	      4.33151216	    -11.21886951	      4.79024055	      2.04818461	      3.46540188	    -15.33687590	     -1.89348487	     47.85974149	     45.37362819	      0.00000000	      0.00000000	      4.42416829	    -10.13917774	     -5.52159683	     54.73986530	     47.35445294	      0.00000000	      0.00000000
